<svg xmlns="http://www.w3.org/2000/svg" width="960" height="620" viewBox="0 0 960 620" role="img" aria-label="Sub2API Quota Widget preview with sample data">
  <defs>
    <linearGradient id="bg" x1="0" y1="0" x2="1" y2="1">
      <stop offset="0" stop-color="#eef5fb"/>
      <stop offset="1" stop-color="#d7e9f5"/>
    </linearGradient>
    <linearGradient id="bar" x1="0" y1="0" x2="1" y2="0">
      <stop offset="0" stop-color="#0b9f72"/>
      <stop offset="1" stop-color="#1769e0"/>
    </linearGradient>
    <filter id="shadow" x="-10%" y="-20%" width="120%" height="150%">
      <feDropShadow dx="0" dy="14" stdDeviation="18" flood-color="#1e2c44" flood-opacity="0.16"/>
    </filter>
    <style>
      .label { fill: #526072; font: 16px "Segoe UI", sans-serif; }
      .name { fill: #172033; font: 700 25px "Segoe UI", sans-serif; }
      .money { fill: #078f5a; font: 700 27px "Segoe UI", sans-serif; }
      .small { fill: #687386; font: 13px "Segoe UI", sans-serif; }
      .badgeText { fill: #0a8f5a; font: 700 14px "Segoe UI", sans-serif; }
      .used { fill: #526072; font: 14px "Segoe UI", sans-serif; }
      .sample { fill: #4f6b83; font: 700 15px "Segoe UI", sans-serif; letter-spacing: 2px; }
    </style>
  </defs>

  <rect width="960" height="620" rx="34" fill="url(#bg)"/>
  <rect x="22" y="22" width="916" height="576" rx="28" fill="#f8fbff" stroke="#d8e1ee" stroke-width="2" filter="url(#shadow)"/>
  <text x="806" y="54" class="sample">SAMPLE DATA</text>

  <g transform="translate(42 58)">
    <rect width="876" height="148" rx="24" fill="#ffffff" stroke="#dfe6ef"/>
    <g transform="translate(18 14)">
      <rect width="258" height="120" rx="18" fill="#f8fafc" stroke="#e7edf5"/>
      <text x="18" y="28" class="label">Account</text>
      <text x="18" y="67" class="name">Demo A</text>
      <rect x="174" y="35" width="60" height="30" rx="15" fill="#e7f7ef"/>
      <text x="190" y="56" class="badgeText">OK</text>
      <text x="18" y="94" class="small">https://demo-a.local</text>
      <line x1="18" y1="106" x2="234" y2="106" stroke="#edf1f6"/>
      <text x="18" y="128" class="money">$42.8800</text>
    </g>
    <g transform="translate(296 14)">
      <rect width="268" height="120" rx="18" fill="#f8fafc" stroke="#e7edf5"/>
      <text x="18" y="28" class="label">Today</text>
      <text x="205" y="28" class="used">23% used</text>
      <text x="18" y="75" class="money">$18.5600</text>
      <rect x="18" y="94" width="232" height="10" rx="5" fill="#dbe3ee"/>
      <rect x="18" y="94" width="54" height="10" rx="5" fill="url(#bar)"/>
      <text x="18" y="124" class="small">$5.4400 / $24.0000</text>
    </g>
    <g transform="translate(584 14)">
      <rect width="274" height="120" rx="18" fill="#f8fafc" stroke="#d7e5fb"/>
      <text x="18" y="28" class="label">Month</text>
      <rect x="154" y="11" width="62" height="23" rx="12" fill="#e7f0ff"/>
      <text x="166" y="28" fill="#0f55bd" font-family="Segoe UI, sans-serif" font-weight="700" font-size="14">18 d</text>
      <text x="220" y="28" class="used">39%</text>
      <text x="18" y="75" class="money">$680.25</text>
      <rect x="18" y="94" width="238" height="10" rx="5" fill="#dbe3ee"/>
      <rect x="18" y="94" width="93" height="10" rx="5" fill="url(#bar)"/>
      <text x="18" y="124" class="small">$419.75 / $1,100.00</text>
    </g>
  </g>

  <g transform="translate(42 226)">
    <rect width="876" height="148" rx="24" fill="#ffffff" stroke="#dfe6ef"/>
    <g transform="translate(18 14)">
      <rect width="258" height="120" rx="18" fill="#f8fafc" stroke="#e7edf5"/>
      <text x="18" y="28" class="label">Account</text>
      <text x="18" y="67" class="name">Demo B</text>
      <rect x="174" y="35" width="60" height="30" rx="15" fill="#e7f7ef"/>
      <text x="190" y="56" class="badgeText">OK</text>
      <text x="18" y="94" class="small">https://demo-b.local</text>
      <line x1="18" y1="106" x2="234" y2="106" stroke="#edf1f6"/>
      <text x="18" y="128" class="money">$9.7200</text>
    </g>
    <g transform="translate(296 14)">
      <rect width="268" height="120" rx="18" fill="#f8fafc" stroke="#e7edf5"/>
      <text x="18" y="28" class="label">Today</text>
      <text x="205" y="28" class="used">12% used</text>
      <text x="18" y="75" class="money">$44.0000</text>
      <rect x="18" y="94" width="232" height="10" rx="5" fill="#dbe3ee"/>
      <rect x="18" y="94" width="28" height="10" rx="5" fill="url(#bar)"/>
      <text x="18" y="124" class="small">$6.0000 / $50.0000</text>
    </g>
    <g transform="translate(584 14)">
      <rect width="274" height="120" rx="18" fill="#f8fafc" stroke="#d7e5fb"/>
      <text x="18" y="28" class="label">Month</text>
      <rect x="154" y="11" width="62" height="23" rx="12" fill="#e7f0ff"/>
      <text x="170" y="28" fill="#0f55bd" font-family="Segoe UI, sans-serif" font-weight="700" font-size="14">5 d</text>
      <text x="220" y="28" class="used">82%</text>
      <text x="18" y="75" class="money">$265.40</text>
      <rect x="18" y="94" width="238" height="10" rx="5" fill="#dbe3ee"/>
      <rect x="18" y="94" width="195" height="10" rx="5" fill="url(#bar)"/>
      <text x="18" y="124" class="small">$1,234.60 / $1,500.00</text>
    </g>
  </g>

  <g transform="translate(42 394)">
    <rect width="274" height="134" rx="24" fill="#ffffff" stroke="#dfe6ef"/>
    <rect x="18" y="14" width="238" height="104" rx="18" fill="#f8fafc" stroke="#e7edf5"/>
    <text x="36" y="43" class="label">Account</text>
    <text x="36" y="79" class="name">Demo C</text>
    <rect x="196" y="51" width="52" height="26" rx="13" fill="#e7f7ef"/>
    <text x="209" y="69" class="badgeText">OK</text>
    <text x="36" y="104" class="small">https://demo-c.local</text>
    <text x="36" y="135" class="money">$15.2500</text>
  </g>

  <g transform="translate(343 394)">
    <rect width="274" height="134" rx="24" fill="#ffffff" stroke="#dfe6ef"/>
    <rect x="18" y="14" width="238" height="104" rx="18" fill="#f8fafc" stroke="#e7edf5"/>
    <text x="36" y="43" class="label">Account</text>
    <text x="36" y="79" class="name">Demo D</text>
    <rect x="196" y="51" width="52" height="26" rx="13" fill="#e7f7ef"/>
    <text x="209" y="69" class="badgeText">OK</text>
    <text x="36" y="104" class="small">https://demo-d.local</text>
    <text x="36" y="135" class="money">$28.4100</text>
  </g>

  <g transform="translate(644 394)">
    <rect width="274" height="134" rx="24" fill="#ffffff" stroke="#dfe6ef"/>
    <rect x="18" y="14" width="238" height="104" rx="18" fill="#f8fafc" stroke="#e7edf5"/>
    <text x="36" y="43" class="label">Account</text>
    <text x="36" y="79" class="name">Demo E</text>
    <rect x="196" y="51" width="52" height="26" rx="13" fill="#e7f7ef"/>
    <text x="209" y="69" class="badgeText">OK</text>
    <text x="36" y="104" class="small">https://demo-e.local</text>
    <text x="36" y="135" class="money">$66.0000</text>
  </g>
</svg>
